<svg width="752" height="208" viewBox="0 0 752 208" fill="none" xmlns="http://www.w3.org/2000/svg">
<circle cx="378" cy="125" r="25" fill="#E04E14"/>
<path d="M104 204.434V3.5657C187.2 3.5657 206.811 70.9181 206.217 104.594C194.331 189.221 132.526 207.802 104 204.434Z" fill="#E04E14" stroke="black"/>
<path d="M104 204.434V3.5657C187.2 3.5657 206.811 70.9181 206.217 104.594C194.331 189.221 132.526 207.802 104 204.434Z" fill="#E04E14" stroke="black"/>
<circle cx="104" cy="104" r="100.5" stroke="black" stroke-width="7"/>
<path d="M18.3987 163.025L104.16 3.51143L109.635 4.88815V202.057H102.179V135.2H41.0056L24.7385 164.619L18.3987 163.025ZM44.8684 128.366H102.179L102.623 20.5894L44.8684 128.366Z" fill="black"/>
<path d="M212.528 150L250.928 55.152H251.44L289.84 150H282.8L249.392 65.136L253.744 62.704L218.8 150H212.528ZM231.088 114.032H271.408L273.2 119.92H229.552L231.088 114.032ZM293.815 99.952L294.455 115.696L293.687 112.624C295.138 108.272 297.868 104.859 301.879 102.384C305.975 99.824 310.498 98.544 315.447 98.544C320.14 98.544 323.938 99.952 326.839 102.768C329.74 105.499 331.234 109.083 331.319 113.52V150H325.175V115.184C325.09 111.941 324.066 109.253 322.103 107.12C320.14 104.987 317.282 103.877 313.527 103.792C310.199 103.792 307.084 104.603 304.183 106.224C301.282 107.845 298.935 110.107 297.143 113.008C295.436 115.909 294.583 119.28 294.583 123.12V150H288.567V99.952H293.815ZM339.859 77.936H346.003V100.592H361.491V105.456H346.003V150H339.859V105.456H329.235V100.592H339.859V77.936ZM352.428 124.656C352.428 119.792 353.58 115.355 355.884 111.344C358.273 107.333 361.473 104.176 365.484 101.872C369.58 99.4827 374.145 98.288 379.18 98.288C384.3 98.288 388.865 99.4827 392.876 101.872C396.887 104.176 400.044 107.333 402.348 111.344C404.652 115.355 405.804 119.792 405.804 124.656C405.804 129.52 404.652 133.957 402.348 137.968C400.044 141.979 396.844 145.179 392.748 147.568C388.737 149.872 384.215 151.024 379.18 151.024C374.06 151.024 369.495 149.915 365.484 147.696C361.473 145.392 358.273 142.277 355.884 138.352C353.58 134.341 352.428 129.776 352.428 124.656ZM358.444 124.784C358.444 128.709 359.34 132.293 361.132 135.536C363.009 138.693 365.484 141.211 368.556 143.088C371.713 144.965 375.212 145.904 379.052 145.904C382.892 145.904 386.348 144.965 389.42 143.088C392.577 141.211 395.052 138.693 396.844 135.536C398.721 132.293 399.66 128.709 399.66 124.784C399.66 120.859 398.721 117.317 396.844 114.16C395.052 110.917 392.577 108.357 389.42 106.48C386.348 104.517 382.892 103.536 379.052 103.536C375.127 103.536 371.585 104.56 368.428 106.608C365.356 108.571 362.924 111.173 361.132 114.416C359.34 117.659 358.444 121.115 358.444 124.784ZM409.715 99.952L410.355 115.696L409.587 112.624C411.038 108.272 413.768 104.859 417.779 102.384C421.875 99.824 426.398 98.544 431.347 98.544C436.04 98.544 439.838 99.952 442.739 102.768C445.64 105.499 447.134 109.083 447.219 113.52V150H441.075V115.184C440.99 111.941 439.966 109.253 438.003 107.12C436.04 104.987 433.182 103.877 429.427 103.792C426.099 103.792 422.984 104.603 420.083 106.224C417.182 107.845 414.835 110.107 413.043 113.008C411.336 115.909 410.483 119.28 410.483 123.12V150H404.467V99.952H409.715ZM450.767 99.952H456.783V150H450.767V99.952ZM449.487 81.52C449.487 80.3253 449.956 79.344 450.895 78.576C451.834 77.7227 452.858 77.296 453.967 77.296C455.162 77.296 456.186 77.7227 457.039 78.576C457.892 79.344 458.319 80.3253 458.319 81.52C458.319 82.8 457.892 83.8667 457.039 84.72C456.186 85.488 455.162 85.872 453.967 85.872C452.858 85.872 451.834 85.4453 450.895 84.592C449.956 83.7387 449.487 82.7147 449.487 81.52ZM481.053 151.024C476.274 151.024 471.922 149.957 467.997 147.824C464.157 145.605 461.085 142.533 458.781 138.608C456.562 134.683 455.453 130.117 455.453 124.912C455.453 119.365 456.648 114.629 459.037 110.704C461.426 106.693 464.669 103.664 468.765 101.616C472.861 99.4827 477.512 98.416 482.717 98.416C487.154 98.416 491.336 99.7387 495.261 102.384C499.272 105.029 502.13 108.357 503.837 112.368L502.941 114.16L503.709 99.952H509.085V150H503.069V134.512L504.349 136.816C503.752 138.523 502.728 140.229 501.277 141.936C499.826 143.557 498.034 145.093 495.901 146.544C493.853 147.909 491.549 149.019 488.989 149.872C486.514 150.64 483.869 151.024 481.053 151.024ZM482.333 145.904C486.088 145.904 489.458 145.136 492.445 143.6C495.517 141.979 497.992 139.76 499.869 136.944C501.746 134.128 502.813 130.885 503.069 127.216V120.048C502.386 116.891 501.021 114.075 498.973 111.6C497.01 109.125 494.578 107.163 491.677 105.712C488.776 104.261 485.618 103.536 482.205 103.536C478.45 103.536 474.994 104.432 471.837 106.224C468.68 107.931 466.162 110.363 464.285 113.52C462.408 116.677 461.469 120.389 461.469 124.656C461.469 128.581 462.408 132.165 464.285 135.408C466.162 138.565 468.68 141.125 471.837 143.088C475.08 144.965 478.578 145.904 482.333 145.904Z" fill="black"/>
<circle cx="614" cy="127" r="25" fill="#E04E14"/>
<path d="M512.464 152V61.12H534.864C543.653 61.12 551.12 62.528 557.264 65.344C563.493 68.0747 568.528 71.7013 572.368 76.224C576.208 80.7467 579.024 85.696 580.816 91.072C582.608 96.448 583.504 101.781 583.504 107.072C583.504 113.984 582.309 120.213 579.92 125.76C577.531 131.221 574.245 135.915 570.064 139.84C565.968 143.765 561.275 146.795 555.984 148.928C550.693 150.976 545.104 152 539.216 152H512.464ZM518.736 145.984H537.552C543.013 145.984 548.133 145.088 552.912 143.296C557.691 141.504 561.872 138.901 565.456 135.488C569.125 132.075 571.984 127.979 574.032 123.2C576.08 118.336 577.104 112.832 577.104 106.688C577.104 101.483 576.208 96.5333 574.416 91.84C572.709 87.0613 570.107 82.8373 566.608 79.168C563.109 75.4987 558.8 72.5973 553.68 70.464C548.56 68.3307 542.587 67.264 535.76 67.264H518.736V145.984ZM584.442 101.952H590.458V152H584.442V101.952ZM583.162 83.52C583.162 82.3253 583.631 81.344 584.57 80.576C585.509 79.7227 586.533 79.296 587.642 79.296C588.837 79.296 589.861 79.7227 590.714 80.576C591.567 81.344 591.994 82.3253 591.994 83.52C591.994 84.8 591.567 85.8667 590.714 86.72C589.861 87.488 588.837 87.872 587.642 87.872C586.533 87.872 585.509 87.4453 584.57 86.592C583.631 85.7387 583.162 84.7147 583.162 83.52ZM614.728 153.024C609.949 153.024 605.597 151.957 601.672 149.824C597.832 147.605 594.76 144.533 592.456 140.608C590.237 136.683 589.128 132.117 589.128 126.912C589.128 121.365 590.323 116.629 592.712 112.704C595.101 108.693 598.344 105.664 602.44 103.616C606.536 101.483 611.187 100.416 616.392 100.416C620.829 100.416 625.011 101.739 628.936 104.384C632.947 107.029 635.805 110.357 637.512 114.368L636.616 116.16L637.384 101.952H642.76V152H636.744V136.512L638.024 138.816C637.427 140.523 636.403 142.229 634.952 143.936C633.501 145.557 631.709 147.093 629.576 148.544C627.528 149.909 625.224 151.019 622.664 151.872C620.189 152.64 617.544 153.024 614.728 153.024ZM616.008 147.904C619.763 147.904 623.133 147.136 626.12 145.6C629.192 143.979 631.667 141.76 633.544 138.944C635.421 136.128 636.488 132.885 636.744 129.216V122.048C636.061 118.891 634.696 116.075 632.648 113.6C630.685 111.125 628.253 109.163 625.352 107.712C622.451 106.261 619.293 105.536 615.88 105.536C612.125 105.536 608.669 106.432 605.512 108.224C602.355 109.931 599.837 112.363 597.96 115.52C596.083 118.677 595.144 122.389 595.144 126.656C595.144 130.581 596.083 134.165 597.96 137.408C599.837 140.565 602.355 143.125 605.512 145.088C608.755 146.965 612.253 147.904 616.008 147.904ZM658.068 153.024C655.167 153.024 652.137 152.512 648.98 151.488C645.823 150.379 643.263 148.629 641.3 146.24L644.116 142.272C645.823 144.064 647.828 145.515 650.132 146.624C652.521 147.648 655.039 148.16 657.684 148.16C659.647 148.16 661.481 147.904 663.188 147.392C664.98 146.795 666.431 145.813 667.54 144.448C668.649 143.083 669.204 141.248 669.204 138.944C669.204 136.555 668.521 134.72 667.156 133.44C665.876 132.16 664.212 131.136 662.164 130.368C660.201 129.515 658.111 128.747 655.892 128.064C652.223 126.869 649.193 125.248 646.804 123.2C644.5 121.152 643.348 118.251 643.348 114.496C643.348 111.765 643.988 109.376 645.268 107.328C646.633 105.28 648.468 103.701 650.772 102.592C653.076 101.397 655.679 100.8 658.58 100.8C661.225 100.8 663.828 101.227 666.388 102.08C669.033 102.933 671.423 104.384 673.556 106.432L670.868 110.656C669.503 108.779 667.668 107.499 665.364 106.816C663.145 106.133 661.183 105.749 659.476 105.664C658.025 105.664 656.489 105.963 654.868 106.56C653.332 107.157 652.009 108.053 650.9 109.248C649.876 110.357 649.364 111.851 649.364 113.728C649.364 115.691 649.919 117.312 651.028 118.592C652.137 119.787 653.545 120.768 655.252 121.536C657.044 122.304 658.879 123.029 660.756 123.712C663.231 124.48 665.535 125.419 667.668 126.528C669.887 127.552 671.679 128.96 673.044 130.752C674.495 132.459 675.22 134.763 675.22 137.664C675.22 140.565 674.58 143.211 673.3 145.6C672.02 147.904 670.1 149.739 667.54 151.104C665.065 152.384 661.908 153.024 658.068 153.024Z" fill="black"/>
</svg>
