<svg width="1080" height="350" viewBox="0 0 1080 350" fill="none" xmlns="http://www.w3.org/2000/svg">
<path d="M175 344V6C315 6 348 119.333 347 176C327 318.4 223 349.667 175 344Z" fill="#E04E14" stroke="black"/>
<path d="M175 344V6C315 6 348 119.333 347 176C327 318.4 223 349.667 175 344Z" fill="#E04E14" stroke="black"/>
<circle cx="175" cy="175" r="169.5" stroke="black" stroke-width="11"/>
<path d="M30.9595 274.321L175.269 5.90866L184.482 8.22526V340H171.935V227.5H69L41.6275 277.004L30.9595 274.321ZM75.5 216H171.935L172.683 34.6456L75.5 216Z" fill="black"/>
<path d="M662.867 184.05C662.867 205.211 645.716 222.365 624.559 222.365C603.402 222.365 586.25 205.211 586.25 184.05C586.25 162.889 603.402 145.735 624.559 145.735C645.716 145.735 662.867 162.889 662.867 184.05Z" fill="#E04E14"/>
<path d="M371 222.365L429.842 77H430.626L489.468 222.365H478.68L427.488 92.3016L434.157 88.5743L380.611 222.365H371ZM399.44 167.24H461.224L463.97 176.264H397.087L399.44 167.24Z" fill="black"/>
<path d="M495.559 145.661L496.54 169.791L495.363 165.082C497.586 158.412 501.77 153.181 507.916 149.388C514.192 145.465 521.123 143.503 528.707 143.503C535.898 143.503 541.717 145.661 546.163 149.977C550.609 154.162 552.897 159.655 553.028 166.456V222.365H543.613V169.006C543.482 164.036 541.913 159.916 538.906 156.647C535.898 153.377 531.518 151.677 525.764 151.546C520.665 151.546 515.892 152.789 511.446 155.274C507.001 157.759 503.405 161.224 500.659 165.671C498.044 170.118 496.736 175.283 496.736 181.169V222.365H487.517V145.661H495.559Z" fill="black"/>
<path d="M566.114 111.919H575.529V146.642H599.262V154.097H575.529V222.365H566.114V154.097H549.834V146.642H566.114V111.919Z" fill="black"/>
<path d="M585.374 183.523C585.374 176.068 587.139 169.267 590.67 163.121C594.331 156.974 599.234 152.135 605.38 148.604C611.657 144.942 618.652 143.111 626.367 143.111C634.213 143.111 641.208 144.942 647.354 148.604C653.5 152.135 658.338 156.974 661.868 163.121C665.399 169.267 667.164 176.068 667.164 183.523C667.164 190.977 665.399 197.778 661.868 203.925C658.338 210.072 653.434 214.976 647.158 218.638C641.012 222.169 634.082 223.935 626.367 223.935C618.521 223.935 611.526 222.235 605.38 218.834C599.234 215.303 594.331 210.529 590.67 204.513C587.139 198.367 585.374 191.37 585.374 183.523ZM594.592 183.719C594.592 189.735 595.965 195.228 598.711 200.198C601.588 205.037 605.38 208.895 610.087 211.772C614.926 214.649 620.287 216.088 626.171 216.088C632.055 216.088 637.351 214.649 642.058 211.772C646.896 208.895 650.688 205.037 653.434 200.198C656.311 195.228 657.749 189.735 657.749 183.719C657.749 177.703 656.311 172.275 653.434 167.436C650.688 162.467 646.896 158.543 642.058 155.666C637.351 152.658 632.055 151.154 626.171 151.154C620.156 151.154 614.729 152.723 609.891 155.862C605.184 158.87 601.457 162.859 598.711 167.829C595.965 172.799 594.592 178.095 594.592 183.719Z" fill="black"/>
<path d="M673.157 145.661L674.138 169.791L672.961 165.082C675.184 158.412 679.368 153.181 685.514 149.388C691.79 145.465 698.72 143.503 706.304 143.503C713.496 143.503 719.315 145.661 723.761 149.977C728.207 154.162 730.495 159.655 730.626 166.456V222.365H721.211V169.006C721.08 164.036 719.511 159.916 716.504 156.647C713.496 153.377 709.116 151.677 703.362 151.546C698.263 151.546 693.49 152.789 689.044 155.274C684.598 157.759 681.002 161.224 678.257 165.671C675.641 170.118 674.334 175.283 674.334 181.169V222.365H665.115V145.661H673.157Z" fill="black"/>
<path d="M736.062 145.661H745.281V222.365H736.062V145.661ZM734.101 117.412C734.101 115.581 734.82 114.077 736.259 112.9C737.697 111.592 739.266 110.938 740.966 110.938C742.797 110.938 744.366 111.592 745.673 112.9C746.981 114.077 747.635 115.581 747.635 117.412C747.635 119.374 746.981 121.008 745.673 122.316C744.366 123.493 742.797 124.082 740.966 124.082C739.266 124.082 737.697 123.428 736.259 122.12C734.82 120.812 734.101 119.243 734.101 117.412Z" fill="black"/>
<path d="M782.471 223.935C775.148 223.935 768.479 222.3 762.465 219.03C756.58 215.63 751.873 210.922 748.343 204.906C744.943 198.89 743.243 191.893 743.243 183.915C743.243 175.414 745.074 168.156 748.735 162.14C752.396 155.993 757.365 151.35 763.641 148.211C769.918 144.942 777.044 143.307 785.021 143.307C791.82 143.307 798.227 145.334 804.242 149.388C810.388 153.443 814.768 158.543 817.384 164.69L816.011 167.436L817.187 145.661H825.425V222.365H816.207V198.628L818.168 202.159C817.253 204.775 815.684 207.391 813.461 210.006C811.238 212.491 808.492 214.845 805.223 217.069C802.085 219.161 798.554 220.861 794.631 222.169C790.839 223.346 786.786 223.935 782.471 223.935ZM784.432 216.088C790.186 216.088 795.351 214.911 799.927 212.557C804.634 210.072 808.427 206.671 811.303 202.356C814.18 198.04 815.814 193.07 816.207 187.446V176.461C815.161 171.622 813.068 167.306 809.93 163.513C806.923 159.72 803.196 156.712 798.75 154.489C794.304 152.266 789.466 151.154 784.236 151.154C778.483 151.154 773.187 152.527 768.349 155.274C763.511 157.889 759.653 161.617 756.777 166.456C753.9 171.295 752.461 176.984 752.461 183.523C752.461 189.539 753.9 195.032 756.777 200.001C759.653 204.84 763.511 208.764 768.349 211.772C773.318 214.649 778.679 216.088 784.432 216.088Z" fill="black"/>
<path d="M1024.5 187.115C1024.5 208.276 1007.35 225.431 986.19 225.431C965.033 225.431 947.882 208.276 947.882 187.115C947.882 165.954 965.033 148.8 986.19 148.8C1007.35 148.8 1024.5 165.954 1024.5 187.115Z" fill="#E04E14"/>
<path d="M830.603 225.431V86.1466H864.927C878.396 86.1466 889.837 88.3046 899.252 92.6204C908.797 96.8055 916.512 102.364 922.396 109.295C928.28 116.227 932.595 123.812 935.341 132.051C938.087 140.291 939.46 148.465 939.46 156.573C939.46 167.167 937.63 176.714 933.968 185.215C930.307 193.585 925.273 200.778 918.866 206.794C912.589 212.81 905.397 217.453 897.29 220.722C889.183 223.861 880.618 225.431 871.596 225.431H830.603ZM840.214 216.21H869.046C877.415 216.21 885.26 214.837 892.583 212.091C899.906 209.344 906.313 205.355 911.805 200.124C917.427 194.893 921.808 188.615 924.946 181.291C928.084 173.837 929.653 165.401 929.653 155.985C929.653 148.007 928.28 140.422 925.534 133.229C922.919 125.905 918.931 119.431 913.57 113.807C908.209 108.184 901.605 103.737 893.76 100.467C885.914 97.1978 876.761 95.563 866.3 95.563H840.214V216.21Z" fill="black"/>
<path d="M940.898 148.726H950.116V225.431H940.898V148.726ZM938.936 120.477C938.936 118.646 939.655 117.142 941.094 115.965C942.532 114.657 944.101 114.003 945.801 114.003C947.632 114.003 949.201 114.657 950.508 115.965C951.816 117.142 952.47 118.646 952.47 120.477C952.47 122.439 951.816 124.074 950.508 125.382C949.201 126.559 947.632 127.147 945.801 127.147C944.101 127.147 942.532 126.493 941.094 125.185C939.655 123.878 938.936 122.308 938.936 120.477Z" fill="black"/>
<path d="M987.306 227C979.983 227 973.315 225.365 967.3 222.096C961.416 218.695 956.708 213.987 953.178 207.971C949.778 201.955 948.078 194.958 948.078 186.98C948.078 178.479 949.909 171.221 953.57 165.205C957.231 159.058 962.2 154.415 968.477 151.277C974.753 148.007 981.879 146.372 989.856 146.372C996.655 146.372 1003.06 148.399 1009.08 152.454C1015.22 156.508 1019.6 161.608 1022.22 167.755L1020.85 170.502L1022.02 148.726H1030.26V225.431H1021.04V201.693L1023 205.225C1022.09 207.84 1020.52 210.456 1018.3 213.072C1016.07 215.556 1013.33 217.911 1010.06 220.134C1006.92 222.226 1003.39 223.927 999.467 225.234C995.674 226.411 991.621 227 987.306 227ZM989.267 219.153C995.021 219.153 1000.19 217.976 1004.76 215.622C1009.47 213.137 1013.26 209.737 1016.14 205.421C1019.02 201.105 1020.65 196.135 1021.04 190.512V179.526C1020 174.687 1017.9 170.371 1014.77 166.578C1011.76 162.786 1008.03 159.778 1003.59 157.554C999.14 155.331 994.302 154.219 989.071 154.219C983.318 154.219 978.022 155.592 973.184 158.339C968.346 160.955 964.488 164.682 961.612 169.521C958.735 174.36 957.297 180.049 957.297 186.588C957.297 192.604 958.735 198.097 961.612 203.067C964.488 207.906 968.346 211.829 973.184 214.837C978.153 217.714 983.514 219.153 989.267 219.153Z" fill="black"/>
<path d="M1053.72 227C1049.27 227 1044.63 226.215 1039.79 224.646C1034.95 222.946 1031.03 220.265 1028.02 216.603L1032.34 210.521C1034.95 213.268 1038.03 215.491 1041.56 217.191C1045.22 218.761 1049.08 219.545 1053.13 219.545C1056.14 219.545 1058.95 219.153 1061.56 218.368C1064.31 217.453 1066.53 215.949 1068.23 213.856C1069.93 211.764 1070.78 208.952 1070.78 205.421C1070.78 201.759 1069.74 198.947 1067.64 196.985C1065.68 195.024 1063.13 193.454 1059.99 192.277C1056.99 190.969 1053.78 189.792 1050.38 188.746C1044.76 186.915 1040.12 184.43 1036.46 181.291C1032.93 178.153 1031.16 173.706 1031.16 167.951C1031.16 163.766 1032.14 160.104 1034.1 156.966C1036.2 153.827 1039.01 151.407 1042.54 149.707C1046.07 147.876 1050.06 146.961 1054.5 146.961C1058.56 146.961 1062.54 147.615 1066.47 148.923C1070.52 150.23 1074.18 152.454 1077.45 155.592L1073.33 162.066C1071.24 159.189 1068.43 157.227 1064.9 156.181C1061.5 155.135 1058.49 154.546 1055.87 154.415C1053.65 154.415 1051.3 154.873 1048.81 155.789C1046.46 156.704 1044.43 158.077 1042.73 159.908C1041.16 161.608 1040.38 163.897 1040.38 166.774C1040.38 169.782 1041.23 172.267 1042.93 174.229C1044.63 176.06 1046.79 177.564 1049.4 178.741C1052.15 179.918 1054.96 181.03 1057.84 182.076C1061.63 183.253 1065.16 184.692 1068.43 186.392C1071.83 187.961 1074.57 190.119 1076.67 192.866C1078.89 195.481 1080 199.012 1080 203.459C1080 207.906 1079.02 211.96 1077.06 215.622C1075.1 219.153 1072.15 221.965 1068.23 224.057C1064.44 226.019 1059.6 227 1053.72 227Z" fill="black"/>
</svg>
