<?xml version="1.0" encoding="utf-8"?>
<!-- Generator: Adobe Illustrator 28.0.0, SVG Export Plug-In . SVG Version: 6.00 Build 0)  -->
<svg version="1.1" id="Layer_1" xmlns="http://www.w3.org/2000/svg" xmlns:xlink="http://www.w3.org/1999/xlink" x="0px" y="0px"
	 viewBox="0 0 156.1 155" style="enable-background:new 0 0 156.1 155;" xml:space="preserve">
<style type="text/css">
	.st0{fill:#E04E14;stroke:#000000;}
	.st1{fill:#E04E14;stroke:#000000;stroke-width:0.25;}
	.st2{fill:none;stroke:#F8F6F8;stroke-width:7;}
	.st3{fill:#F8F6F8;}
</style>
<path class="st0" d="M77.6,152.3V2.7c62.1,0,76.7,50.2,76.3,75.3C145.1,141,98.9,154.9,77.6,152.3z"/>
<path class="st1" d="M77.6,152.3V2.7c24.4,0,40.5,8.5,52.2,19.5c18.1,16.9,24.4,40.6,24.1,55.8C145.1,141,98.9,154.9,77.6,152.3z"/>
<path class="st2" d="M151.8,77.5c0,40.9-33.2,74-74.1,74c-40.9,0-74.1-33.1-74.1-74c0-40.9,33.2-74,74.1-74
	C118.6,3.5,151.8,36.6,151.8,77.5z"/>
<path class="st3" d="M13.7,121.5l64-118.9l4.1,1v146.9h-5.6v-49.8H30.6l-12.1,21.9L13.7,121.5z M33.5,95.7h42.8l0.3-80.3L33.5,95.7z
	"/>
</svg>
