<svg width="421" height="155" viewBox="0 0 421 155" fill="none" xmlns="http://www.w3.org/2000/svg">
<path d="M77.6312 152.343V2.65714C139.736 2.65714 154.375 52.8476 153.932 77.9428C145.059 141.006 98.9244 154.852 77.6312 152.343Z" fill="#E04E14" stroke="black"/>
<path d="M77.6312 152.343V2.65714C139.736 2.65714 154.375 52.8476 153.932 77.9428C145.059 141.006 98.9244 154.852 77.6312 152.343Z" fill="#E04E14" stroke="black"/>
<path d="M151.762 77.5C151.762 118.363 118.578 151.5 77.6312 151.5C36.6841 151.5 3.5 118.363 3.5 77.5C3.5 36.6365 36.6841 3.5 77.6312 3.5C118.578 3.5 151.762 36.6365 151.762 77.5Z" stroke="#F8F6F8" stroke-width="7"/>
<path d="M13.7338 121.485L77.7504 2.6167L81.8374 3.64262V150.571H76.2716V100.75H30.6088L18.4661 122.673L13.7338 121.485ZM33.4922 95.6572H76.2716L76.6034 15.3431L33.4922 95.6572Z" fill="#F8F6F8"/>
</svg>
